<?xml version="1.0" standalone="yes"?>

<svg version="1.1" viewBox="0.0 0.0 288.0 288.0" fill="none" stroke="none" stroke-linecap="square" stroke-miterlimit="10" xmlns="http://www.w3.org/2000/svg" xmlns:xlink="http://www.w3.org/1999/xlink"><clipPath id="p.0"><path d="m0 0l288.0 0l0 288.0l-288.0 0l0 -288.0z" clip-rule="nonzero"></path></clipPath><g clip-path="url(#p.0)"><path fill="#000000" fill-opacity="0.0" d="m0 0l288.0 0l0 288.0l-288.0 0z" fill-rule="nonzero"></path><path fill="#b71c1c" d="m-8.818898E-5 0l290.4882 0l0 288.0l-290.4882 0z" fill-rule="nonzero"></path><path fill="#ffffff" d="m-9.997386 183.73396l61.001602 -16.066025l9.543106 -21.604233l13.186062 -14.132889l6.8144684 -13.296921l14.543236 -8.307312l8.185928 -19.932327l11.357445 -7.4974747l5.9144363 -11.625015l7.2716217 -3.3176956l10.45742 5.7994385l15.900406 12.487091l22.729172 21.60424l23.172043 15.778664l15.000397 19.122498l23.643478 2.4817352l15.900406 0.835968l20.457672 12.460968l19.94339 0.31347656l17.70047 14.9427185l14.971832 -19.932327l16.014679 -11.102539l14.08609 -13.296921l11.814606 -9.979233l15.000397 -9.979218l9.543091 -19.096375l13.186066 0l20.44339 24.921936l19.100525 0.8359604l21.357697 29.075584l34.543762 -9.9530945l23.714874 -3.8140564l-10.885986 9.95311l-32.829407 32.079803l-11.357452 15.804794l-63.38739 -50.39247l-53.887115 37.90538l-6.3573 12.487091l-40.44394 30.747498l-11.828857 -5.8255615l-29.54364 -22.4402l-17.714752 0.835968l-18.643356 20.76828l-17.271881 -1.6457977l-8.628799 -31.58345l-15.000381 -21.630356l-23.186325 -30.747513l-9.543106 -13.296921l-6.357315 -1.6457901l-17.271881 -15.804787l-5.914444 0l-24.543503 41.562683l-27.257858 24.085968l-13.643211 12.487106l-9.085953 11.625l-21.81486 -4.153656l-15.586123 3.5789337z" fill-rule="nonzero"></path><path stroke="#ffffff" stroke-width="1.0" stroke-linejoin="round" stroke-linecap="butt" d="m-9.997386 183.73396l61.001602 -16.066025l9.543106 -21.604233l13.186062 -14.132889l6.8144684 -13.296921l14.543236 -8.307312l8.185928 -19.932327l11.357445 -7.4974747l5.9144363 -11.625015l7.2716217 -3.3176956l10.45742 5.7994385l15.900406 12.487091l22.729172 21.60424l23.172043 15.778664l15.000397 19.122498l23.643478 2.4817352l15.900406 0.835968l20.457672 12.460968l19.94339 0.31347656l17.70047 14.9427185l14.971832 -19.932327l16.014679 -11.102539l14.08609 -13.296921l11.814606 -9.979233l15.000397 -9.979218l9.543091 -19.096375l13.186066 0l20.44339 24.921936l19.100525 0.8359604l21.357697 29.075584l34.543762 -9.9530945l23.714874 -3.8140564l-10.885986 9.95311l-32.829407 32.079803l-11.357452 15.804794l-63.38739 -50.39247l-53.887115 37.90538l-6.3573 12.487091l-40.44394 30.747498l-11.828857 -5.8255615l-29.54364 -22.4402l-17.714752 0.835968l-18.643356 20.76828l-17.271881 -1.6457977l-8.628799 -31.58345l-15.000381 -21.630356l-23.186325 -30.747513l-9.543106 -13.296921l-6.357315 -1.6457901l-17.271881 -15.804787l-5.914444 0l-24.543503 41.562683l-27.257858 24.085968l-13.643211 12.487106l-9.085953 11.625l-21.81486 -4.153656l-15.586123 3.5789337z" fill-rule="nonzero"></path></g></svg>

